<?xml version="1.0" standalone="no"?>
<!DOCTYPE svg PUBLIC "-//W3C//DTD SVG 20010904//EN"
 "http://www.w3.org/TR/2001/REC-SVG-20010904/DTD/svg10.dtd">
<svg version="1.0" xmlns="http://www.w3.org/2000/svg"
 width="528.000000pt" height="528.000000pt" viewBox="0 0 528.000000 528.000000"
 preserveAspectRatio="xMidYMid meet">
<metadata>
Created by potrace 1.14, written by Peter Selinger 2001-2017
</metadata>
<g transform="translate(0.000000,528.000000) scale(0.100000,-0.100000)"
fill="#000000" stroke="none">
<path d="M2659 5205 c-3 -2 -64 -6 -138 -9 -73 -3 -136 -8 -139 -10 -4 -2 -36
-7 -72 -10 -36 -4 -83 -11 -105 -16 -22 -5 -56 -11 -75 -14 -91 -14 -346 -91
-435 -131 -42 -19 -104 -44 -110 -45 -9 -1 -220 -113 -235 -124 -8 -7 -28 -18
-44 -26 -30 -16 -210 -139 -235 -162 -8 -7 -27 -22 -42 -34 -84 -62 -257 -230
-334 -324 -21 -25 -40 -47 -44 -50 -4 -3 -18 -21 -31 -40 -13 -19 -27 -37 -31
-40 -9 -7 -139 -199 -139 -206 0 -3 -9 -19 -20 -34 -80 -113 -249 -527 -276
-678 -3 -13 -11 -52 -19 -86 -7 -33 -16 -79 -20 -101 -3 -23 -7 -50 -9 -62
-28 -142 -28 -591 -1 -723 3 -14 8 -47 11 -75 4 -27 22 -111 41 -185 19 -74
35 -139 36 -145 2 -5 5 -14 9 -20 3 -5 11 -30 18 -55 7 -24 21 -65 32 -90 11
-25 23 -54 28 -65 4 -11 18 -42 30 -70 13 -27 24 -52 24 -55 1 -3 13 -26 29
-52 15 -26 27 -49 27 -52 0 -23 210 -335 232 -344 4 -2 8 -8 8 -14 0 -6 14
-24 30 -40 17 -15 30 -31 30 -34 0 -2 10 -15 23 -28 12 -13 52 -56 90 -95 37
-39 69 -71 71 -71 2 0 27 -23 56 -50 30 -29 60 -48 67 -45 8 2 11 0 8 -5 -4
-6 0 -16 7 -23 25 -22 97 -77 102 -77 5 0 16 -8 68 -53 12 -9 27 -17 35 -17 7
0 13 -3 13 -8 0 -4 17 -16 37 -27 21 -11 40 -22 43 -26 19 -22 46 -27 65 -11
11 9 14 10 8 2 -7 -8 -13 -17 -13 -21 0 -10 77 -49 84 -42 3 4 6 1 6 -5 0 -6
15 -19 32 -28 32 -17 32 -16 18 1 -10 12 -10 16 -2 11 7 -4 21 -2 30 5 14 11
15 11 5 -1 -16 -17 -17 -40 -3 -40 6 0 38 -13 72 -30 34 -16 67 -26 73 -21 14
11 55 12 55 1 0 -5 -12 -6 -27 -4 -22 4 -26 3 -16 -7 12 -12 31 -19 61 -21 6
-1 12 -5 12 -10 0 -5 4 -7 9 -3 5 3 12 1 16 -4 3 -6 12 -8 20 -4 8 3 15 0 15
-7 0 -6 4 -9 9 -5 5 3 13 0 16 -5 5 -7 12 -5 20 7 10 13 17 15 25 7 9 -9 9
-14 -1 -19 -8 -5 -10 -4 -5 3 4 7 2 12 -4 12 -15 0 -7 -25 8 -26 7 -1 14 -3
17 -4 3 -1 10 -4 15 -5 6 -1 11 -4 13 -5 2 -2 32 -7 75 -12 6 -1 12 -6 12 -11
0 -5 8 -3 17 4 11 10 14 10 9 2 -4 -7 -2 -13 3 -13 6 0 11 6 11 14 0 22 17 28
33 12 8 -8 17 -13 21 -11 3 3 2 -1 -4 -7 -7 -9 -14 -7 -25 8 -16 19 -16 19
-13 0 2 -12 14 -23 31 -27 16 -4 25 -3 21 2 -3 5 0 9 6 9 6 0 8 5 4 12 -4 7
-3 8 4 4 6 -4 8 -14 5 -23 -5 -12 -3 -14 8 -7 20 12 40 14 33 3 -3 -5 -10 -6
-16 -3 -7 4 -8 2 -4 -5 4 -6 12 -8 18 -5 6 4 14 0 19 -7 6 -10 9 -11 9 -1 0 6
7 12 15 12 8 0 15 -4 15 -8 0 -4 8 -8 18 -9 32 -3 72 -12 84 -19 8 -5 7 0 -2
11 -14 17 -14 18 6 7 12 -6 24 -8 28 -5 3 3 6 2 6 -3 0 -12 77 -17 285 -17
148 -1 211 3 325 18 46 6 195 34 210 39 8 3 27 7 42 10 71 12 295 88 408 138
99 44 116 53 150 73 19 12 37 22 40 23 12 2 46 17 55 24 6 5 38 25 72 46 356
212 692 558 894 920 51 90 59 106 59 120 0 6 3 12 8 12 4 0 16 21 26 48 11 26
27 65 37 87 20 43 78 200 84 226 2 9 12 47 23 85 21 72 46 187 58 264 3 25 8
53 10 64 25 134 25 662 0 705 -2 3 -6 29 -10 56 -7 57 -11 82 -26 146 -6 26
-13 55 -15 65 -2 11 -4 19 -5 19 -1 0 -3 11 -6 25 -2 14 -18 68 -35 120 -84
256 -202 492 -349 698 -25 35 -52 74 -60 85 -8 12 -27 34 -42 50 -15 15 -25
27 -22 27 6 0 -50 61 -146 159 -55 57 -163 153 -237 212 -197 158 -513 331
-739 404 -27 9 -56 19 -64 22 -8 3 -19 7 -25 9 -5 1 -41 12 -80 22 -171 49
-362 80 -538 87 -53 2 -101 6 -106 9 -4 3 -10 4 -12 1z m-359 -1757 c58 -33
121 -69 140 -80 19 -11 103 -60 187 -109 84 -49 155 -89 158 -89 3 0 18 -8 33
-19 25 -17 228 -135 332 -193 25 -14 69 -39 98 -57 29 -17 57 -31 62 -31 6 0
10 -4 10 -10 0 -5 4 -10 10 -10 5 0 55 -27 111 -60 55 -33 104 -60 107 -60 13
0 52 -54 52 -71 0 -17 -39 -51 -64 -55 -24 -4 -366 -76 -446 -94 -47 -10 -98
-21 -115 -24 -75 -12 -105 -21 -170 -51 -81 -37 -136 -87 -311 -285 -65 -74
-126 -141 -134 -150 -8 -9 -44 -49 -80 -89 -102 -115 -152 -127 -165 -38 -3
23 -5 399 -3 835 3 863 0 820 58 806 14 -3 72 -33 130 -66z m-1573 -2333 c0
-8 -4 -12 -9 -9 -5 3 -6 10 -3 15 9 13 12 11 12 -6z m328 -34 c-9 -8 -36 -10
-30 -2 2 4 11 8 20 8 8 0 13 -3 10 -6z m-240 -20 c-9 -8 -36 -10 -30 -2 2 4
11 8 20 8 8 0 13 -3 10 -6z m470 -170 c3 -5 2 -12 -3 -15 -5 -3 -9 1 -9 9 0
17 3 19 12 6z m-95 -45 c0 -3 -4 -8 -10 -11 -5 -3 -10 -1 -10 4 0 6 5 11 10
11 6 0 10 -2 10 -4z m-107 -21 c-3 -9 -8 -14 -10 -11 -3 3 -2 9 2 15 9 16 15
13 8 -4z m47 -5 c0 -5 -2 -10 -4 -10 -3 0 -8 5 -11 10 -3 6 -1 10 4 10 6 0 11
-4 11 -10z m135 1 c-9 -8 -36 -10 -30 -2 2 4 11 8 20 8 8 0 13 -3 10 -6z
m-160 -30 c3 -5 2 -12 -3 -15 -5 -3 -9 1 -9 9 0 17 3 19 12 6z m100 -10 c-9
-8 -36 -10 -30 -2 2 4 11 8 20 8 8 0 13 -3 10 -6z m125 -21 c0 -5 -5 -10 -11
-10 -5 0 -7 5 -4 10 3 6 8 10 11 10 2 0 4 -4 4 -10z m-304 -22 c3 -4 -1 -5
-10 -4 -8 1 -18 5 -22 8 -3 4 1 5 10 4 8 -1 18 -5 22 -8z m64 8 c0 -3 -4 -8
-10 -11 -5 -3 -10 -1 -10 4 0 6 5 11 10 11 6 0 10 -2 10 -4z m-24 -48 c4 -7 4
-10 -1 -6 -4 4 -15 2 -24 -5 -14 -11 -14 -10 -2 6 16 20 18 21 27 5z m119 2
c3 -5 1 -10 -4 -10 -6 0 -11 5 -11 10 0 6 2 10 4 10 3 0 8 -4 11 -10z m226
-17 c13 -16 12 -17 -3 -4 -17 13 -22 21 -14 21 2 0 10 -8 17 -17z m-221 -23
c0 -5 -2 -10 -4 -10 -3 0 -8 5 -11 10 -3 6 -1 10 4 10 6 0 11 -4 11 -10z m14
-70 c-6 -6 -10 -3 -10 10 0 13 4 16 10 10 7 -7 7 -13 0 -20z m39 15 c-3 -9 -8
-14 -10 -11 -3 3 -2 9 2 15 9 16 15 13 8 -4z m82 -24 c3 -5 2 -12 -3 -15 -5
-3 -9 1 -9 9 0 17 3 19 12 6z m125 -1 c0 -5 -5 -10 -11 -10 -5 0 -7 5 -4 10 3
6 8 10 11 10 2 0 4 -4 4 -10z m56 -26 c1 -9 0 -13 -4 -10 -3 4 -7 14 -8 22 -1
9 0 13 4 10 3 -4 7 -14 8 -22z m-299 9 c-4 -3 -1 -13 6 -22 11 -14 10 -14 -5
-2 -16 12 -16 31 -1 31 4 0 3 -3 0 -7z m53 1 c0 -8 -19 -13 -24 -6 -3 5 1 9 9
9 8 0 15 -2 15 -3z m143 -39 c-7 -21 -12 -19 -10 4 0 11 5 18 9 15 4 -3 5 -11
1 -19z m146 2 c8 -10 7 -14 -2 -14 -8 0 -14 6 -14 14 0 7 1 13 2 13 2 0 8 -6
14 -13z m-195 -6 c-8 -8 -34 -10 -38 -2 -3 4 6 7 19 7 14 0 22 -2 19 -5z m153
-8 c0 -9 -4 -10 -13 -2 -7 6 -18 8 -23 5 -5 -4 -12 -3 -15 2 -3 5 8 8 23 8 16
0 28 -5 28 -13z m66 -23 c-3 -12 -8 -19 -11 -16 -5 6 5 36 12 36 2 0 2 -9 -1
-20z m-25 -15 c-3 -3 -9 2 -12 12 -6 14 -5 15 5 6 7 -7 10 -15 7 -18z m-87 -2
c13 -16 12 -17 -3 -4 -17 13 -22 21 -14 21 2 0 10 -8 17 -17z m66 -25 c2 -12
1 -19 -3 -16 -3 3 -6 12 -8 20 -1 7 -5 20 -10 28 -7 12 -6 13 4 3 8 -7 15 -23
17 -35z m97 34 c2 -4 -5 -9 -17 -9 -17 -2 -19 0 -7 7 18 12 18 12 24 2z m-254
-6 c0 -2 -6 -9 -14 -15 -11 -9 -16 -9 -22 0 -4 7 -3 9 4 5 6 -3 13 -2 17 4 6
10 15 14 15 6z m37 -41 c0 -8 -4 -12 -9 -9 -5 3 -6 10 -3 15 9 13 12 11 12 -6z
m97 7 c3 -5 -1 -9 -9 -9 -8 0 -12 4 -9 9 3 4 7 8 9 8 2 0 6 -4 9 -8z m166 -1
c0 -6 -4 -12 -8 -15 -5 -3 -9 1 -9 9 0 8 4 15 9 15 4 0 8 -4 8 -9z m-168 -25
c7 4 5 -2 -5 -13 -9 -11 -14 -23 -10 -26 3 -4 1 -7 -6 -7 -8 0 -11 6 -7 16 4
9 1 24 -6 33 -12 14 -11 14 4 3 9 -8 23 -10 30 -6z m105 8 c-3 -3 -12 -4 -19
-1 -8 3 -5 6 6 6 11 1 17 -2 13 -5z m18 -14 c-3 -5 -14 -10 -23 -9 -14 0 -13
2 3 9 27 11 27 11 20 0z m-58 -15 c0 -8 -4 -12 -9 -9 -5 3 -6 10 -3 15 9 13
12 11 12 -6z m123 -57 c0 -5 -5 -8 -11 -8 -5 0 -8 4 -4 9 3 5 1 12 -5 16 -5 3
-10 11 -10 18 0 12 29 -23 30 -35z m25 24 c-3 -3 -11 0 -18 7 -9 10 -8 11 6 5
10 -3 15 -9 12 -12z m-130 -10 c-3 -3 -11 0 -18 7 -9 10 -8 11 6 5 10 -3 15
-9 12 -12z m55 8 c-18 -12 -30 -13 -30 -2 0 4 10 9 22 9 18 2 20 0 8 -7z m110
0 c0 -5 -4 -10 -10 -10 -5 0 -10 5 -10 10 0 6 5 10 10 10 6 0 10 -4 10 -10z
m55 -19 c3 -5 2 -12 -3 -15 -5 -3 -9 1 -9 9 0 17 3 19 12 6z m-115 -37 c0 -2
-13 2 -30 11 -16 9 -30 18 -30 21 0 2 14 -2 30 -11 17 -9 30 -18 30 -21z m44
20 c3 -8 2 -13 -3 -9 -5 3 -11 0 -13 -7 -3 -7 -7 -5 -11 6 -4 10 -3 15 3 11 6
-3 10 -1 10 4 0 16 7 13 14 -5z m61 -17 c4 4 5 2 0 -6 -7 -12 -10 -11 -22 4
-7 11 -13 24 -13 29 1 6 6 1 13 -12 7 -12 17 -19 22 -15z m30 3 c-3 -5 -1 -10
6 -10 7 0 10 -3 6 -6 -9 -9 -28 6 -22 17 4 5 8 9 11 9 3 0 2 -4 -1 -10z m-61
-16 c3 -8 2 -12 -4 -9 -6 3 -10 10 -10 16 0 14 7 11 14 -7z m66 -19 c0 -1 -12
-2 -26 -2 -17 0 -22 2 -13 7 10 7 39 3 39 -5z m47 -7 c-3 -8 -6 -5 -6 6 -1 11
2 17 5 13 3 -3 4 -12 1 -19z m-36 -15 c-12 -20 -14 -14 -5 12 4 9 9 14 11 11
3 -2 0 -13 -6 -23z m64 18 c-5 -9 20 -21 54 -27 22 -4 34 -21 20 -29 -7 -5
-10 -4 -6 2 4 6 0 13 -8 17 -17 6 -30 -10 -15 -17 6 -3 5 -4 -2 -2 -7 1 -12 8
-10 15 2 8 -3 10 -13 6 -9 -3 -14 -2 -11 3 3 5 -1 12 -10 15 -13 5 -12 26 2
26 3 0 3 -4 -1 -9z m-135 -5 c0 -3 -4 -8 -10 -11 -5 -3 -10 -1 -10 4 0 6 5 11
10 11 6 0 10 -2 10 -4z m100 -26 c0 -5 -4 -10 -10 -10 -5 0 -10 5 -10 10 0 6
5 10 10 10 6 0 10 -4 10 -10z m153 -40 c-3 -11 -7 -20 -9 -20 -2 0 -4 9 -4 20
0 11 4 20 9 20 5 0 7 -9 4 -20z m30 -15 c-10 -7 -20 -12 -21 -10 -7 7 23 33
31 28 5 -3 0 -11 -10 -18z m-78 5 c3 -6 -1 -7 -9 -4 -18 7 -21 14 -7 14 6 0
13 -4 16 -10z"/>
</g>
</svg>
