<!DOCTYPE svg PUBLIC "-//W3C//DTD SVG 1.1//EN" "http://www.w3.org/Graphics/SVG/1.1/DTD/svg11.dtd">
<!-- Uploaded to: SVG Repo, www.svgrepo.com, Transformed by: SVG Repo Mixer Tools -->
<svg width="800px" height="800px" viewBox="0 0 1024 1024" class="icon" version="1.1" xmlns="http://www.w3.org/2000/svg" fill="#000000">
<g id="SVGRepo_bgCarrier" stroke-width="0"/>
<g id="SVGRepo_tracerCarrier" stroke-linecap="round" stroke-linejoin="round" stroke="#CCCCCC" stroke-width="26.624000000000002"/>
<g id="SVGRepo_iconCarrier">
<path d="M723.968835 203.668197H294.65679L126.467244 387.147423v336.379094h764.498312V387.147423L723.968835 203.668197z m-415.874574 30.580383h402.376694l139.132705 152.899867H615.746204c0 57.245429-49.75366 103.53426-107.029804 103.534261-57.279217 0-107.029805-46.288832-107.029805-103.534261H167.976579l140.117682-152.899867z" fill="#0E7EA3"/>
<path d="M693.388452 173.088838H264.077431L95.887885 356.568064v336.379094h764.498312V356.568064L693.388452 173.088838z m-415.874574 30.579359h402.376694l139.132705 152.899867H585.166845c0 57.245429-49.75366 103.53426-107.029804 103.534261-57.279217 0-107.029805-46.288832-107.029805-103.534261H137.39722l140.116658-152.899867z" fill="#D1D5DB"/>
<path d="M220.138035 431.176487a27.511799 58.462828 55.515 1 0 96.378831-66.202191 27.511799 58.462828 55.515 1 0-96.378831 66.202191Z" fill="#D1D5DB"/>
<path d="M161.060945 527.386482a18.340858 32.096757 55.515 1 0 52.913073-36.345756 18.340858 32.096757 55.515 1 0-52.913073 36.345756Z" fill="#D1D5DB"/>
</g>
</svg>