<svg width="285" height="280" viewBox="0 0 285 280" fill="none" xmlns="http://www.w3.org/2000/svg">
<g clip-path="url(#clip0_2_2)">
<path d="M232.348 153.693C242.506 158.836 249.58 167.064 257.128 174.699C259.957 177.56 262.38 180.823 264.901 183.799C252.342 178.574 240.106 173.311 227.711 168.453C224.709 167.276 221.101 166.745 217.911 167.116C208.992 168.15 201.096 165.124 193.04 162.17C189.748 160.963 186.14 160.617 182.602 159.863C181.313 164.309 182.145 166.16 186.701 167.143C200.125 170.036 213.467 173.373 226.702 177.039C232.621 178.678 238.206 181.519 243.656 184.9C240.876 184.6 238.1 184.091 235.315 184.035C218.021 183.687 201.265 187.089 184.726 191.7C178.734 193.37 172.938 195.748 166.943 197.406C165.082 197.921 162.532 197.742 160.854 196.843C145.511 188.618 129.25 182.97 112.22 179.715C103.038 177.959 93.6934 176.758 84.3666 176.129C75.4848 175.53 66.5265 175.828 57.6102 176.059C51.3934 176.22 45.1908 176.933 38.2804 176.625C43.0075 173.838 47.4198 169.975 52.5253 168.482C64.2916 165.04 76.3274 162.396 88.3839 160.115C96.7597 158.53 105.332 157.703 113.853 157.26C120.588 156.909 121.099 150.699 125.261 148.074C125.025 147.571 124.79 147.068 124.554 146.565C122.269 146.929 119.96 147.185 117.705 147.682C114.185 148.457 111.789 148.113 111.9 143.569C111.931 142.276 110.701 140.953 110.049 139.643C108.486 140.489 105.714 141.174 105.575 142.21C105.045 146.183 105.361 150.268 105.361 154.354C94.4236 153.779 82.5224 153.153 69.9191 152.49C72.9433 150.203 76.0378 148.437 78.4 145.969C85.3819 138.677 92.1894 131.208 98.8412 123.611C103.578 118.202 108.29 117.485 113.684 122.25C120.819 128.554 129.166 131.949 138.628 133.412C140.394 128.305 141.526 122.896 144.049 118.241C147.689 111.527 151.855 104.962 156.701 99.0781C161.078 93.7638 169.877 95.0011 173.888 100.627C178.947 107.723 181.478 115.777 183.02 124.249C183.954 129.382 184.749 134.602 186.37 139.531C187.981 144.429 193.009 146.315 197.624 141.765C199.709 139.71 201.307 137.149 203.056 134.768C205.753 131.097 208.196 130.897 210.93 134.551C212.279 136.354 213.463 138.522 213.925 140.694C214.798 144.8 217.528 146.533 221.041 147.999C224.813 149.573 228.382 151.638 232.348 153.693ZM135.361 157.898C133.736 159.294 132.111 160.689 129.617 162.83C135.174 162.83 139.274 162.83 143.467 162.83C145.322 157.619 147.131 152.539 148.94 147.459C148.619 147.247 148.297 147.036 147.975 146.824C143.967 150.382 139.959 153.941 135.361 157.898Z" fill="#8F1A7F"/>
<path d="M202.439 198.261C221.542 194.831 240.411 194.672 259.307 194.996C261.098 195.026 262.889 195 264.944 195C264.543 197.676 264.602 199.93 263.789 201.804C263.212 203.132 261.529 204.75 260.214 204.87C244.742 206.285 229.788 209.717 215.281 215.308C198.103 221.927 182.051 230.584 168.114 242.596C159.68 249.866 152.612 258.737 144.072 265.86C141.255 268.21 135.581 268.393 131.513 267.729C121.998 266.178 112.418 264.257 104.012 258.991C101.384 257.345 98.825 255.59 95.8831 253.654C125.39 223.317 161.224 206.112 202.439 198.261Z" fill="#8F1A7F"/>
<path d="M68.7533 234.253C54.3295 219.83 43.1507 201.63 39.9332 186.704C78.0972 182.674 114.986 185.209 150.878 202.048C144.703 205.145 138.919 207.271 134.006 210.659C121.452 219.318 109.281 228.53 96.9747 237.545C95.252 238.807 93.5617 240.129 91.9715 241.553C85.2997 247.523 84.7243 247.618 77.5758 242.003C74.5946 239.661 71.854 237.013 68.7533 234.253Z" fill="#8F1A7F"/>
<path d="M117.773 85.8441C112.071 82.6275 111.812 81.1875 115.752 76.7519C115.973 76.5034 116.232 76.2892 116.452 76.0397C121.853 69.9044 121.378 70.117 118.151 62.929C115.158 56.2616 113.442 49.0301 110.885 42.1504C110.403 40.8535 108.742 39.4202 107.4 39.1434C105.003 38.6489 102.282 39.5033 99.9806 38.8276C97.8276 38.1956 95.0366 36.6621 94.409 34.8672C93.8942 33.3947 95.6312 30.1894 97.2683 29.0906C101.833 26.027 106.707 23.2978 111.751 21.1082C117.969 18.409 123.734 20.6424 128.758 24.4826C131.882 26.8697 134.458 27.2053 138.208 25.5355C151.825 19.4721 165.962 15.1698 181.126 16.0746C184.508 16.2764 187.96 17.0644 191.153 18.2142C194.989 19.5959 196.877 25.0732 194.085 29.1844C190.321 34.726 186.166 40.7013 180.719 44.2477C170.768 50.7265 159.719 55.5099 149.205 61.1428C147.913 61.835 146.453 63.2515 146.144 64.5819C142.718 79.3132 134.218 86.1512 119.177 85.9858C118.844 85.9821 118.512 85.9547 117.773 85.8441ZM159.007 41.5321C163.54 45.7666 166.982 43.8343 169.232 41.1214C171.909 37.8924 171.646 34.4189 168.785 31.329C165.949 28.2677 161.664 28.2326 158.208 31.4917C154.927 34.5853 155.546 37.899 159.007 41.5321Z" fill="#8F1A7F"/>
<path d="M237.749 237.75C215.088 259.384 188.168 269.169 156.199 269.164C182.686 238.363 214.747 219.643 254.807 214.07C250.806 223.405 244.518 230.534 237.749 237.75Z" fill="#8F1A7F"/>
<path d="M52.9935 100.026C46.4538 113.336 42.8527 126.965 41.8196 141.452C41.4011 147.321 43.0557 154.998 33.8542 157.352C33.2531 154.13 32.2305 150.823 32.0752 147.475C30.7776 119.499 39.1637 94.7074 56.6005 72.8018C63.7262 63.8498 72.2718 56.9142 82.4697 51.8453C89.5226 48.3395 102.049 49.1734 106.374 57.5418C82.1293 63.3903 64.5431 77.6818 52.9935 100.026Z" fill="#8F1A7F"/>
<path d="M104.359 73.3016C99.6482 77.2205 94.923 80.6315 90.8919 84.7259C78.8968 96.9092 68.7061 110.329 63.8734 127.126C63.6659 127.847 63.015 128.441 62.3755 129.382C65.9971 91.7899 92.5992 70.0554 110.909 68.533C108.542 70.2651 106.602 71.6855 104.359 73.3016Z" fill="#8F1A7F"/>
</g>
<defs>
<clipPath id="clip0_2_2">
<rect width="285" height="280" fill="white"/>
</clipPath>
</defs>
</svg>
