<svg width="42" height="30" viewBox="0 0 42 30" fill="none" xmlns="http://www.w3.org/2000/svg"><path fill-rule="evenodd" clip-rule="evenodd" d="M6.82077 19.2869C5.84759 16.1571 5.96826 12.7894 7.16298 9.7373C8.3577 6.68528 10.5554 4.13057 13.3946 2.4932C16.2339 0.855832 19.5458 0.233261 22.7858 0.727851C26.0259 1.22245 29.0012 2.80476 31.2227 5.21465C30.6618 5.49011 30.0869 5.77654 29.4981 6.07395C27.5368 4.11791 24.9855 2.86287 22.2391 2.5031C19.4926 2.14334 16.7041 2.6989 14.3052 4.08381C11.9063 5.46872 10.0309 7.60573 8.9691 10.1641C7.90725 12.7224 7.71836 15.5594 8.4316 18.236C7.87869 18.5893 7.34174 18.9396 6.82077 19.2869ZM41.0001 2.95552C40.9187 2.93362 40.8319 2.94497 40.7588 2.98705H40.7678C36.5802 4.81962 32.4557 6.78619 28.4005 8.88318L20.5158 5.34639C20.3667 5.28076 20.2043 5.25091 20.0416 5.25923C19.8788 5.26755 19.7203 5.3138 19.5787 5.3943C19.4379 5.47517 19.3182 5.58806 19.2293 5.72383C19.1403 5.8596 19.0846 6.01443 19.0667 6.17575L18.3092 12.9843L14.5366 11.3825C14.3908 11.3202 14.2325 11.2924 14.0742 11.3013C13.9159 11.3102 13.7618 11.3555 13.6238 11.4338C13.4859 11.512 13.3679 11.621 13.279 11.7524C13.1901 11.8837 13.1328 12.0338 13.1114 12.1909L12.2843 18.1357C8.1432 20.7613 4.0918 23.5319 0.137892 26.4428C0.0719522 26.4885 0.0255721 26.5573 0.00788212 26.6355C-0.00979788 26.7138 0.00250226 26.7958 0.0423923 26.8654C0.0822723 26.935 0.146822 26.9871 0.223272 27.0114C0.299722 27.0357 0.382522 27.0305 0.455282 26.9967C7.62525 23.8383 14.6214 20.2992 21.414 16.3946C28.1928 12.463 34.7563 8.17135 41.0762 3.53797C41.1493 3.49588 41.2026 3.4265 41.2245 3.34508C41.2464 3.26366 41.235 3.17687 41.1929 3.10382C41.1509 3.03076 41.0815 2.97742 41.0001 2.95552ZM14.2939 16.8772C15.4588 16.1567 16.6307 15.4476 17.8093 14.75L14.7731 13.4604L14.2939 16.8772ZM20.0921 13.4179C22.1576 12.2299 24.2431 11.0767 26.3479 9.9589L20.7554 7.45124L20.0921 13.4179ZM31.0779 21.9614C32.458 19.8928 33.1949 17.4621 33.1958 14.9754C33.1964 13.892 33.0565 12.8131 32.7796 11.7657C33.3325 11.4025 33.8694 11.0472 34.3904 10.6998C35.3547 13.8265 35.2285 17.1879 34.0326 20.2335C32.8367 23.2791 30.642 25.8282 27.8079 27.4634C24.9738 29.0986 21.6685 29.7228 18.4333 29.2339C15.198 28.7449 12.2248 27.1717 10.0005 24.7721C10.5534 24.4966 11.1293 24.2102 11.7281 23.9128C13.4934 25.6641 15.7375 26.8538 18.1778 27.3319C20.618 27.81 23.1452 27.5552 25.4408 26.5994C27.7365 25.6437 29.6979 24.0299 31.0779 21.9614ZM39.91 23.3576C40.1531 22.9937 40.2829 22.5659 40.2829 22.1283C40.2829 21.5415 40.0497 20.9787 39.6348 20.5637C39.2198 20.1488 38.6571 19.9157 38.0702 19.9157C37.6326 19.9157 37.2048 20.0454 36.841 20.2886C36.4771 20.5317 36.1935 20.8773 36.026 21.2816C35.8585 21.6859 35.8147 22.1308 35.9001 22.56C35.9855 22.9892 36.1962 23.3834 36.5056 23.6929C36.8151 24.0023 37.2094 24.2131 37.6386 24.2984C38.0678 24.3838 38.5127 24.34 38.917 24.1725C39.3213 24.005 39.6668 23.7214 39.91 23.3576ZM4.98538 6.83743C4.98538 7.05489 4.92084 7.26745 4.79997 7.44822C4.67909 7.62899 4.50733 7.76983 4.30637 7.85291C4.10541 7.93599 3.88431 7.95758 3.67108 7.91493C3.45784 7.87229 3.26203 7.76734 3.10848 7.61337C2.95492 7.45939 2.85051 7.26331 2.80845 7.04996C2.76639 6.83662 2.7886 6.61558 2.87222 6.41485C2.95585 6.21412 3.09715 6.04272 3.27825 5.92234C3.45934 5.80196 3.67207 5.73801 3.88953 5.7386C4.03369 5.7386 4.17644 5.76704 4.30959 5.8223C4.44274 5.87756 4.56367 5.95855 4.66546 6.06063C4.76726 6.1627 4.84792 6.28386 4.90281 6.41715C4.95771 6.55045 4.98577 6.69327 4.98538 6.83743Z" fill="#4ECAFF"/></svg>
