<?xml version="1.0" encoding="UTF-8" standalone="no"?>
<!-- Created with Inkscape (http://www.inkscape.org/) -->

<svg
   width="128"
   height="128"
   viewBox="0 0 33.866666 33.866667"
   version="1.1"
   id="svg1"
   xml:space="preserve"
   xmlns="http://www.w3.org/2000/svg"
   xmlns:svg="http://www.w3.org/2000/svg"><defs
     id="defs1" /><g
     id="layer1"><g
       id="g1"
       transform="matrix(1.4232434,0,0,1.4232434,16.915196,17.10368)"><g
         stroke="#61dafb"
         stroke-width="1"
         fill="none"
         id="g3"><ellipse
           rx="11"
           ry="4.1999998"
           id="ellipse1"
           cx="0"
           cy="0" /><ellipse
           rx="11"
           ry="4.1999998"
           transform="rotate(60)"
           id="ellipse2"
           cx="0"
           cy="0" /><ellipse
           rx="11"
           ry="4.1999998"
           transform="rotate(120)"
           id="ellipse3"
           cx="0"
           cy="0"
           style="fill:#ffffff;fill-opacity:0" /></g><ellipse
         fill="#61dafb"
         id="circle1-46"
         style="stroke-width:1.01735"
         ry="4.826261"
         rx="4.215796"
         cy="0.15913987"
         cx="-0.031601399" /></g><path
       style="fill:none;fill-opacity:1;stroke:#000000;stroke-width:1.1;stroke-dasharray:none;stroke-opacity:1;stroke-linejoin:round;stroke-linecap:butt"
       d="m 12.509642,30.690503 -0.05834,-0.05685 -7.23e-4,-0.0561 -7.23e-4,-0.05611 0.768979,-2.092476 0.768982,-2.092473 0.556751,-1.543372 0.556748,-1.543368 0.006,-0.120103 0.006,-0.120088 -1.470798,0.0062 -1.470797,0.0062 -0.06194,-0.0727 -0.06194,-0.0727 0.233074,-0.46889 0.233073,-0.468892 0.856189,-1.667244 0.85619,-1.667245 0.41769,-0.85935 0.417689,-0.859349 -0.02911,-0.04578 -0.02911,-0.04576 -1.464266,0.01887 -1.464263,0.01887 -0.09348,-0.0485 -0.09349,-0.0485 -0.0011,-0.08618 -0.0011,-0.08616 0.11036,-0.213586 0.110359,-0.213582 1.014121,-2.024324 1.014119,-2.024327 0.696804,-1.43016 0.696802,-1.4301581 0.701201,-1.4012125 0.701198,-1.4012124 2.501594,-0.044655 2.501597,-0.044655 0.03154,0.079108 0.03152,0.079108 -0.04589,0.1264481 -0.04587,0.1264636 -0.768293,1.3291372 -0.768291,1.3291355 -0.6677,1.1797846 -0.6677,1.179784 0.02576,0.06464 0.02576,0.06464 1.695367,-0.02185 1.695368,-0.02185 0.07639,0.07444 0.07639,0.07446 7.89e-4,0.06124 7.9e-4,0.06124 -0.249474,0.406592 -0.249474,0.40659 -0.614255,0.968038 -0.614255,0.968039 -1.187109,1.911536 -1.187107,1.91154 -0.06878,0.13724 -0.06879,0.13724 0.02683,0.06732 0.02683,0.06732 1.62427,-0.02093 1.624265,-0.02093 0.09295,0.06616 0.09294,0.06612 -0.04534,0.122827 -0.04534,0.122843 -1.34915,1.664026 -1.349152,1.664023 -0.8062,1.018519 -0.8062,1.018517 -0.670268,0.824742 -0.670264,0.824741 -1.724844,2.146499 -1.724842,2.146498 -0.05964,7.69e-4 -0.05966,7.69e-4 z"
       id="path1-1" /><path
       style="fill:#ffd22a;fill-opacity:1;stroke:#ffffff;stroke-width:0.4;stroke-dasharray:none;stroke-opacity:1;stroke-linejoin:round;stroke-linecap:round"
       d="m 12.509642,30.690503 -0.05834,-0.05685 -7.23e-4,-0.0561 -7.23e-4,-0.05611 0.768979,-2.092476 0.768982,-2.092473 0.556751,-1.543372 0.556748,-1.543368 0.006,-0.120103 0.006,-0.120088 -1.470798,0.0062 -1.470797,0.0062 -0.06194,-0.0727 -0.06194,-0.0727 0.233074,-0.46889 0.233073,-0.468892 0.856189,-1.667244 0.85619,-1.667245 0.41769,-0.85935 0.417689,-0.859349 -0.02911,-0.04578 -0.02911,-0.04576 -1.464266,0.01887 -1.464263,0.01887 -0.09348,-0.0485 -0.09349,-0.0485 -0.0011,-0.08618 -0.0011,-0.08616 0.11036,-0.213586 0.110359,-0.213582 1.014121,-2.024324 1.014119,-2.024327 0.696804,-1.43016 0.696802,-1.4301581 0.701201,-1.4012125 0.701198,-1.4012124 2.501594,-0.044655 2.501597,-0.044655 0.03154,0.079108 0.03152,0.079108 -0.04589,0.1264481 -0.04587,0.1264636 -0.768293,1.3291372 -0.768291,1.3291355 -0.6677,1.1797846 -0.6677,1.179784 0.02576,0.06464 0.02576,0.06464 1.695367,-0.02185 1.695368,-0.02185 0.07639,0.07444 0.07639,0.07446 7.89e-4,0.06124 7.9e-4,0.06124 -0.249474,0.406592 -0.249474,0.40659 -0.614255,0.968038 -0.614255,0.968039 -1.187109,1.911536 -1.187107,1.91154 -0.06878,0.13724 -0.06879,0.13724 0.02683,0.06732 0.02683,0.06732 1.62427,-0.02093 1.624265,-0.02093 0.09295,0.06616 0.09294,0.06612 -0.04534,0.122827 -0.04534,0.122843 -1.34915,1.664026 -1.349152,1.664023 -0.8062,1.018519 -0.8062,1.018517 -0.670268,0.824742 -0.670264,0.824741 -1.724844,2.146499 -1.724842,2.146498 -0.05964,7.69e-4 -0.05966,7.69e-4 z"
       id="path1" /></g></svg>
